<svg id="visual" viewBox="0 0 960 540" width="960" height="540" xmlns="http://www.w3.org/2000/svg" xmlns:xlink="http://www.w3.org/1999/xlink" version="1.1"><g stroke-width="1" stroke-linejoin="bevel"><path d="M448.7 264L462.7 329L517.3 252Z" fill="#1d4e6b" stroke="#1d4e6b"></path><path d="M462.7 329L526.3 383L517.3 252Z" fill="#112e42" stroke="#112e42"></path><path d="M517.3 252L500.3 167L448.7 264Z" fill="#081a28" stroke="#081a28"></path><path d="M500.3 167L415.7 181L448.7 264Z" fill="#297ea6" stroke="#297ea6"></path><path d="M448.7 264L346 361L462.7 329Z" fill="#1d4e6b" stroke="#1d4e6b"></path><path d="M526.3 383L603 353L517.3 252Z" fill="#1d4e6b" stroke="#1d4e6b"></path><path d="M637 216L514.3 129L500.3 167Z" fill="#205a7a" stroke="#205a7a"></path><path d="M447.7 455L510.3 437L526.3 383Z" fill="#205a7a" stroke="#205a7a"></path><path d="M526.3 383L510.3 437L603 353Z" fill="#081a28" stroke="#081a28"></path><path d="M327 239L346 361L448.7 264Z" fill="#297ea6" stroke="#297ea6"></path><path d="M462.7 329L447.7 455L526.3 383Z" fill="#15384f" stroke="#15384f"></path><path d="M637 216L500.3 167L517.3 252Z" fill="#00101c" stroke="#00101c"></path><path d="M500.3 167L406.7 86L415.7 181Z" fill="#081a28" stroke="#081a28"></path><path d="M603 353L637 216L517.3 252Z" fill="#0c2435" stroke="#0c2435"></path><path d="M415.7 181L327 239L448.7 264Z" fill="#081a28" stroke="#081a28"></path><path d="M346 361L447.7 455L462.7 329Z" fill="#205a7a" stroke="#205a7a"></path><path d="M603 353L663 243L637 216Z" fill="#205a7a" stroke="#205a7a"></path><path d="M250.3 440L316 410L202.3 338Z" fill="#19435d" stroke="#19435d"></path><path d="M346 361L316 410L447.7 455Z" fill="#15384f" stroke="#15384f"></path><path d="M415.7 181L293 195L327 239Z" fill="#0c2435" stroke="#0c2435"></path><path d="M202.3 338L316 410L346 361Z" fill="#112e42" stroke="#112e42"></path><path d="M295 88L293 195L415.7 181Z" fill="#081a28" stroke="#081a28"></path><path d="M514.3 129L406.7 86L500.3 167Z" fill="#19435d" stroke="#19435d"></path><path d="M603 353L716.7 276L663 243Z" fill="#00101c" stroke="#00101c"></path><path d="M772.7 214L665 100L637 216Z" fill="#297ea6" stroke="#297ea6"></path><path d="M750.7 329L716.7 276L603 353Z" fill="#19435d" stroke="#19435d"></path><path d="M640 540L676 447L510.3 437Z" fill="#112e42" stroke="#112e42"></path><path d="M510.3 437L676 447L603 353Z" fill="#205a7a" stroke="#205a7a"></path><path d="M345 540L444.7 540L447.7 455Z" fill="#112e42" stroke="#112e42"></path><path d="M447.7 455L534.3 540L510.3 437Z" fill="#0c2435" stroke="#0c2435"></path><path d="M444.7 540L534.3 540L447.7 455Z" fill="#081a28" stroke="#081a28"></path><path d="M772.7 214L637 216L663 243Z" fill="#297ea6" stroke="#297ea6"></path><path d="M637 216L665 100L514.3 129Z" fill="#297ea6" stroke="#297ea6"></path><path d="M514.3 129L507.3 0L406.7 86Z" fill="#205a7a" stroke="#205a7a"></path><path d="M676 447L750.7 329L603 353Z" fill="#1d4e6b" stroke="#1d4e6b"></path><path d="M716.7 276L772.7 214L663 243Z" fill="#297ea6" stroke="#297ea6"></path><path d="M406.7 86L295 88L415.7 181Z" fill="#246688" stroke="#246688"></path><path d="M202.3 338L346 361L327 239Z" fill="#00101c" stroke="#00101c"></path><path d="M316 410L345 540L447.7 455Z" fill="#112e42" stroke="#112e42"></path><path d="M202.3 338L327 239L195.3 305Z" fill="#0c2435" stroke="#0c2435"></path><path d="M250.3 440L345 540L316 410Z" fill="#112e42" stroke="#112e42"></path><path d="M644 0L507.3 0L514.3 129Z" fill="#112e42" stroke="#112e42"></path><path d="M406.7 86L359 0L295 88Z" fill="#0c2435" stroke="#0c2435"></path><path d="M195.3 305L327 239L293 195Z" fill="#0c2435" stroke="#0c2435"></path><path d="M534.3 540L640 540L510.3 437Z" fill="#297ea6" stroke="#297ea6"></path><path d="M676 447L729.7 472L750.7 329Z" fill="#297ea6" stroke="#297ea6"></path><path d="M225.3 152L195.3 305L293 195Z" fill="#1d4e6b" stroke="#1d4e6b"></path><path d="M750.7 329L772.7 214L716.7 276Z" fill="#0c2435" stroke="#0c2435"></path><path d="M295 88L225.3 152L293 195Z" fill="#081a28" stroke="#081a28"></path><path d="M507.3 0L419.7 0L406.7 86Z" fill="#00101c" stroke="#00101c"></path><path d="M706.7 540L729.7 472L676 447Z" fill="#277297" stroke="#277297"></path><path d="M750.7 329L840.3 320L772.7 214Z" fill="#00101c" stroke="#00101c"></path><path d="M419.7 0L359 0L406.7 86Z" fill="#19435d" stroke="#19435d"></path><path d="M295 88L240.3 78L225.3 152Z" fill="#297ea6" stroke="#297ea6"></path><path d="M359 0L240.3 78L295 88Z" fill="#205a7a" stroke="#205a7a"></path><path d="M755.7 96L644 0L665 100Z" fill="#19435d" stroke="#19435d"></path><path d="M665 100L644 0L514.3 129Z" fill="#19435d" stroke="#19435d"></path><path d="M772.7 214L755.7 96L665 100Z" fill="#15384f" stroke="#15384f"></path><path d="M640 540L706.7 540L676 447Z" fill="#246688" stroke="#246688"></path><path d="M843.3 484L840.3 320L750.7 329Z" fill="#297ea6" stroke="#297ea6"></path><path d="M772.7 214L834.3 126L755.7 96Z" fill="#081a28" stroke="#081a28"></path><path d="M843.3 484L750.7 329L729.7 472Z" fill="#00101c" stroke="#00101c"></path><path d="M960 270L855.3 298L960 384Z" fill="#297ea6" stroke="#297ea6"></path><path d="M840.3 320L855.3 298L772.7 214Z" fill="#00101c" stroke="#00101c"></path><path d="M138.7 108L132.7 172L225.3 152Z" fill="#297ea6" stroke="#297ea6"></path><path d="M225.3 152L132.7 172L195.3 305Z" fill="#277297" stroke="#277297"></path><path d="M195.3 305L77.7 373L202.3 338Z" fill="#246688" stroke="#246688"></path><path d="M132.7 172L113.7 254L195.3 305Z" fill="#205a7a" stroke="#205a7a"></path><path d="M75.7 477L179.3 540L250.3 440Z" fill="#1d4e6b" stroke="#1d4e6b"></path><path d="M853.3 174L834.3 126L772.7 214Z" fill="#112e42" stroke="#112e42"></path><path d="M755.7 96L773.7 0L644 0Z" fill="#0c2435" stroke="#0c2435"></path><path d="M855.3 298L853.3 174L772.7 214Z" fill="#112e42" stroke="#112e42"></path><path d="M240.3 78L138.7 108L225.3 152Z" fill="#0c2435" stroke="#0c2435"></path><path d="M0 208L0 270L113.7 254Z" fill="#297ea6" stroke="#297ea6"></path><path d="M201.3 0L138.7 108L240.3 78Z" fill="#081a28" stroke="#081a28"></path><path d="M250.3 440L179.3 540L345 540Z" fill="#081a28" stroke="#081a28"></path><path d="M77.7 373L250.3 440L202.3 338Z" fill="#1d4e6b" stroke="#1d4e6b"></path><path d="M706.7 540L843.3 484L729.7 472Z" fill="#15384f" stroke="#15384f"></path><path d="M834.3 126L773.7 0L755.7 96Z" fill="#1d4e6b" stroke="#1d4e6b"></path><path d="M359 0L201.3 0L240.3 78Z" fill="#15384f" stroke="#15384f"></path><path d="M0 270L77.7 373L113.7 254Z" fill="#00101c" stroke="#00101c"></path><path d="M113.7 254L77.7 373L195.3 305Z" fill="#15384f" stroke="#15384f"></path><path d="M77.7 373L75.7 477L250.3 440Z" fill="#15384f" stroke="#15384f"></path><path d="M75.7 477L98.7 540L179.3 540Z" fill="#0c2435" stroke="#0c2435"></path><path d="M706.7 540L878.3 540L843.3 484Z" fill="#1d4e6b" stroke="#1d4e6b"></path><path d="M960 384L855.3 298L840.3 320Z" fill="#1d4e6b" stroke="#1d4e6b"></path><path d="M855.3 298L960 270L853.3 174Z" fill="#297ea6" stroke="#297ea6"></path><path d="M960 384L840.3 320L843.3 484Z" fill="#246688" stroke="#246688"></path><path d="M853.3 174L960 115L834.3 126Z" fill="#19435d" stroke="#19435d"></path><path d="M834.3 126L891.3 0L773.7 0Z" fill="#0c2435" stroke="#0c2435"></path><path d="M960 424L960 384L843.3 484Z" fill="#297ea6" stroke="#297ea6"></path><path d="M960 270L960 175L853.3 174Z" fill="#15384f" stroke="#15384f"></path><path d="M0 208L132.7 172L0 110Z" fill="#00101c" stroke="#00101c"></path><path d="M0 208L113.7 254L132.7 172Z" fill="#15384f" stroke="#15384f"></path><path d="M77.7 373L0 442L75.7 477Z" fill="#277297" stroke="#277297"></path><path d="M75.7 477L0 540L98.7 540Z" fill="#0c2435" stroke="#0c2435"></path><path d="M878.3 540L960 424L843.3 484Z" fill="#19435d" stroke="#19435d"></path><path d="M0 270L0 340L77.7 373Z" fill="#277297" stroke="#277297"></path><path d="M0 110L132.7 172L138.7 108Z" fill="#00101c" stroke="#00101c"></path><path d="M960 115L891.3 0L834.3 126Z" fill="#15384f" stroke="#15384f"></path><path d="M201.3 0L82.7 0L138.7 108Z" fill="#15384f" stroke="#15384f"></path><path d="M960 175L960 115L853.3 174Z" fill="#297ea6" stroke="#297ea6"></path><path d="M0 340L0 442L77.7 373Z" fill="#246688" stroke="#246688"></path><path d="M82.7 0L0 110L138.7 108Z" fill="#19435d" stroke="#19435d"></path><path d="M878.3 540L960 540L960 424Z" fill="#277297" stroke="#277297"></path><path d="M0 442L0 540L75.7 477Z" fill="#081a28" stroke="#081a28"></path><path d="M960 115L960 0L891.3 0Z" fill="#246688" stroke="#246688"></path><path d="M82.7 0L0 0L0 110Z" fill="#081a28" stroke="#081a28"></path></g></svg>